<?xml version="1.0" encoding="UTF-8" standalone="no"?>
<!-- Created with Inkscape (http://www.inkscape.org/) -->

<svg
   xmlns:dc="http://purl.org/dc/elements/1.1/"
   xmlns:cc="http://creativecommons.org/ns#"
   xmlns:rdf="http://www.w3.org/1999/02/22-rdf-syntax-ns#"
   xmlns:svg="http://www.w3.org/2000/svg"
   xmlns="http://www.w3.org/2000/svg"
   xmlns:sodipodi="http://sodipodi.sourceforge.net/DTD/sodipodi-0.dtd"
   xmlns:inkscape="http://www.inkscape.org/namespaces/inkscape"
   id="svg4246"
   version="1.1"
   inkscape:version="0.91 r13725"
   width="1209.375"
   height="545.625"
   viewBox="0 0 1209.375 545.625"
   sodipodi:docname="SimpleDesign23.svg">
  <metadata
     id="metadata4252">
    <rdf:RDF>
      <cc:Work
         rdf:about="">
        <dc:format>image/svg+xml</dc:format>
        <dc:type
           rdf:resource="http://purl.org/dc/dcmitype/StillImage" />
        <dc:title></dc:title>
      </cc:Work>
    </rdf:RDF>
  </metadata>
  <defs
     id="defs4250" />
  <sodipodi:namedview
     pagecolor="#ffffff"
     bordercolor="#666666"
     borderopacity="1"
     objecttolerance="10"
     gridtolerance="10"
     guidetolerance="10"
     inkscape:pageopacity="0"
     inkscape:pageshadow="2"
     inkscape:window-width="1600"
     inkscape:window-height="837"
     id="namedview4248"
     showgrid="false"
     inkscape:zoom="0.91286822"
     inkscape:cx="604.6875"
     inkscape:cy="272.8125"
     inkscape:window-x="-8"
     inkscape:window-y="-8"
     inkscape:window-maximized="1"
     inkscape:current-layer="svg4246" />
  <path
     style="fill:#000000"
     d="m 555.31228,529.45066 c -3.52291,-2.02794 -7.62411,-8.0946 -9.71046,-14.36407 -3.46284,-10.40583 -11.91241,-19.03581 -23.07172,-23.56432 -5.71162,-2.31781 -19.60641,-11.85172 -21.40265,-14.68543 -5.34725,-8.4357 -5.04026,-14.34061 1.0912,-20.98903 1.77738,-1.92723 3.517,-3.93798 3.86584,-4.46833 0.87657,-1.33266 7.31122,-3.98888 12.19163,-5.03269 2.23156,-0.47728 4.31151,-1.12191 4.6221,-1.43251 1.66967,-1.66966 -22.71139,-33.92886 -37.60644,-49.75803 -5.82235,-6.1875 -11.37776,-12.51562 -12.34534,-14.0625 -0.9676,-1.54687 -3.46778,-4.75957 -5.55597,-7.13931 -6.61124,-7.5343 -14.55183,-19.41181 -18.29293,-27.36255 -12.04629,-25.60127 -12.1208,-25.82741 -15.09361,-45.80718 -1.42082,-9.54921 -1.8672,-16.01971 -1.54167,-22.34721 0.67668,-13.15261 -1.30263,-15.06871 -6.53289,-6.3243 -9.54019,15.95013 -21.7871,22.56593 -42.67181,23.05142 l -14.7112,0.34197 -2.39818,-2.39818 c -5.19169,-5.19169 1.44566,-12.90556 6.97682,-8.10841 2.56236,2.22232 4.78114,2.29983 9.84375,0.34388 2.0625,-0.79684 6.15205,-1.82388 9.08789,-2.28231 10.90681,-1.70309 33.24395,-19.64634 38.30965,-30.77384 1.0814,-2.37544 2.52169,-5.37367 3.20065,-6.66273 1.83793,-3.48948 7.05806,-19.51096 7.05806,-21.6624 0,-1.02752 0.58582,-3.00742 1.30182,-4.39978 0.71601,-1.39237 2.62522,-7.30955 4.2427,-13.1493 6.60999,-23.86477 25.50352,-66.9908 33.3399,-76.10102 3.76017,-4.3714 6.27776,-12.1875 3.92564,-12.1875 -1.2065,0 -16.49356,9.7868 -21.76953,13.93687 -1.41193,1.11062 -5.35256,3.35897 -8.75696,4.99633 -3.4044,1.63735 -8.93201,4.56212 -12.28357,6.49947 -8.39647,4.85353 -44.61642,20.62015 -52.82564,22.99511 -29.28743,8.47296 -45.00245,19.74728 -54.37466,39.00962 -6.68018,13.72952 -7.1747,15.43856 -7.1747,24.79537 0,11.4561 -2.9638,14.60988 -8.84115,9.40786 -6.38539,-5.6517 -4.3185,-32.34016 2.71356,-35.03862 0.78209,-0.30011 2.89076,-2.92787 4.68594,-5.83946 4.50348,-7.30415 16.31011,-18.70717 22.89501,-22.11236 7.81259,-4.04005 3.0473,-6.97586 -8.66619,-5.33909 -10.00977,1.3987 -15.11504,1.34394 -20.78599,-0.22296 -2.56158,-0.70776 -12.02891,-3.27846 -21.0385,-5.71266 -15.52909,-4.19563 -22.15574,-6.66666 -25.33768,-9.44825 -0.77344,-0.67613 -4.57031,-2.88922 -8.4375,-4.91798 -15.86219,-8.32143 -18.38367,-9.76699 -20.625,-11.82428 -3.48513,-3.19894 -16.99395,-13.96714 -19.6875,-15.69336 -1.28906,-0.82612 -5.10021,-4.19266 -8.4692,-7.4812 -3.369,-3.28853 -10.15529,-9.02816 -15.08063,-12.75472 -4.92535,-3.726549 -10.54657,-8.276415 -12.49158,-10.110798 -8.60465,-8.115231 -12.04903,-8.112266 -13.19349,0.01136 -3.77074,26.76541 -34.22474,19.71336 -50.60697,-11.71875 -4.43466,-8.508648 -7.00326,-12.164573 -12.1855,-17.34375 l -6.56638,-6.5625 -13.828125,-4.641335 C 83.097656,50.462182 76.875,48.277472 76.875,48.160005 c 0,-4.477021 28.6581,-4.299122 42.65625,0.264794 2.57813,0.840564 8.27344,3.006353 12.65625,4.812863 4.38281,1.806511 9.44531,3.686618 11.25,4.178015 1.80469,0.491398 4.72225,2.012178 6.48348,3.379512 1.76122,1.367334 5.20129,3.540748 7.64459,4.829811 10.02846,5.290926 25.98637,15.513117 29.95757,19.189972 2.33303,2.160117 5.49709,4.715581 7.03125,5.67881 5.73168,3.598687 24.53954,17.813828 29.64207,22.403738 11.51814,10.36098 21.54666,17.34741 29.69215,20.68522 2.74031,1.1229 5.7989,2.74078 6.79688,3.59528 1.70696,1.46154 1.81451,1.44304 1.81451,-0.3122 0,-1.0262 -0.58701,-1.86582 -1.30446,-1.86582 -1.44271,0 -3.22933,-3.97775 -7.15833,-15.9375 -8.45157,-25.726229 -11.87673,-32.591675 -20.62392,-41.338866 -8.03717,-8.037175 -10.30714,-8.454356 -11.97949,-2.201624 -2.83453,10.598002 -11.22084,11.278775 -18.6566,1.514485 -8.68988,-11.411158 7.75665,-27.121429 19.50996,-18.636546 1.23425,0.891023 3.93159,2.70839 5.99409,4.038594 5.94425,3.833729 12.73476,11.440362 17.82521,19.967556 7.04759,11.805667 9.3069,12.064595 13.0898,1.500151 9.07629,-25.34718 41.67884,-39.795013 80.18964,-35.53607 2.84193,0.314292 21.61537,0.844732 41.71875,1.178755 36.12415,0.600212 36.55487,0.630202 36.83122,2.564351 0.35633,2.494024 -1.7218,4.21031 -6.15613,5.084224 -12.45254,2.454129 -22.69428,6.474437 -31.15474,12.229525 -13.83102,9.408325 -28.88081,15.768862 -39.10251,16.526005 l -7.69625,0.570078 -1.02937,4.958409 c -1.22811,5.915798 -3.15498,8.447714 -15.45312,20.305483 -10.76864,10.38305 -12.29793,12.88775 -13.12574,21.49763 -0.83871,8.72317 -4.80082,9.71387 -8.41222,2.10341 -1.47441,-3.1071 -1.5314,-4.83742 -0.6109,-18.54804 2.77153,-41.281025 1.76718,-56.98779 -3.52603,-55.142566 -34.1446,11.902872 -39.46005,67.232346 -8.14267,84.758436 0.89578,0.5013 4.36829,2.95936 7.71672,5.46235 4.49971,3.36361 7.23109,4.70221 10.46943,5.13089 2.40977,0.31899 7.54547,1.16271 11.41266,1.87493 28.7276,5.29078 69.90997,2.83917 86.71875,-5.16243 1.03125,-0.49092 5.25,-2.19063 9.375,-3.77715 10.36937,-3.98817 44.62719,-21.06506 52.03125,-25.93661 6.85038,-4.50725 25.71831,-17.66298 33.10675,-23.0838 2.6741,-1.961951 7.00899,-5.016522 9.63308,-6.787938 5.36624,-3.622524 14.59232,-12.701009 17.15726,-16.882792 0.93178,-1.519143 5.55487,-6.713868 10.27353,-11.543832 9.10847,-9.323322 9.81268,-10.84084 6.47,-13.942343 -4.41685,-4.098176 -7.24521,-3.190705 -13.06839,4.192948 C 508.03871,77.28122 495.06828,86.126459 489.0566,80.390625 477.44866,69.315322 473.38482,67.707968 463.75324,70.382472 c -4.22927,1.174386 -6.79182,5.829267 -5.85912,10.643082 2.34345,12.094776 1.69941,13.243352 -5.89895,10.520188 -11.73474,-4.205589 -19.68132,1.473433 -16.85864,12.048008 0.55054,2.0625 1.06145,5.01562 1.13536,6.5625 l 0.13436,2.8125 -9.84375,0.58102 c -15.55758,0.91829 -22.62016,3.70013 -30.13192,11.86853 -8.62077,9.37432 -11.33797,11.16142 -18.06601,11.88193 -14.96773,1.60291 -23.17469,-9.62474 -15.96129,-21.83605 6.30329,-10.67062 23.08386,-2.5509 17.25124,8.34745 -2.62668,4.90799 5.62008,0.82315 12.77451,-6.32755 5.43367,-5.43084 13.69889,-9.09203 24.96592,-11.05899 9.04101,-1.57835 8.30744,-0.87624 8.61535,-8.245871 0.43587,-10.432443 4.7814,-14.822429 15.31247,-15.469142 9.33729,-0.573401 10.181,-1.078565 11.41551,-6.834861 3.67382,-17.130444 20.72361,-18.809911 38.55601,-3.797908 5.12074,4.310846 9.6156,-27.138063 4.59925,-32.179387 C 495.34352,39.345158 446.6839,39.485514 365.86667,40.272977 294.83531,40.965088 194.13481,41.49861 142.08776,41.45858 61.836417,41.396857 47.063512,41.589167 44.868697,42.724149 35.730801,47.449539 27.52631,38.086411 32.897604,29.0625 c 3.70575,-6.225754 9.686639,-7.815136 12.611394,-3.351397 0.819347,1.250482 2.622041,2.636361 4.005987,3.07973 8.005542,2.564707 1026.504315,-2.815441 1031.550215,-5.44909 5.6968,-2.973408 11.5169,-1.555309 13.7523,3.350811 4.1065,9.0128 -5.0626,16.988631 -13.5681,11.802365 -2.8238,-1.721845 -5.1668,-1.811358 -47.8125,-1.826613 -123.16093,-0.04405 -397.37438,2.052253 -398.00261,3.042655 -0.98015,1.545221 -0.16315,25.049743 0.97089,27.93129 2.54826,6.47509 8.87526,8.666929 12.87255,4.45939 10.30768,-10.849869 29.47227,-6.077032 29.47227,7.339911 0,4.540169 2.41308,5.844451 7.91644,4.278879 12.57308,-3.576728 21.02057,3.760861 21.56032,18.727559 0.31665,8.78021 -0.54205,7.85937 9.54684,10.23765 4.56107,1.07519 9.77726,2.93723 11.59153,4.13786 5.47559,3.62357 14.91847,7.05282 18.5662,6.74244 l 3.34592,-0.28469 -0.23248,-6.27278 c -0.3554,-9.58946 3.462,-13.20151 11.58237,-10.95937 13.80454,3.81161 12.14951,17.63895 -2.83443,23.6808 -12.28713,4.95444 -18.54048,4.22898 -35.80916,-4.15429 C 717.66669,122.50902 711.63278,120 710.57487,120 c -10.5602,0 -16.62433,-3.63222 -14.5105,-8.69133 5.81999,-13.929204 -3.63866,-24.293727 -13.79597,-15.117214 -7.4043,6.689334 -10.07743,4.694724 -10.35924,-7.72975 -0.35912,-15.832435 -9.95491,-19.094027 -19.31653,-6.565657 -5.48605,7.341797 -9.07694,6.828522 -19.9659,-2.853897 C 621.80442,69.419006 618.42227,66.201141 611.25,58.703797 601.53781,48.55142 599.44874,47.9287 595.54687,54.022933 c -3.29936,5.153199 -2.85635,6.001245 8.4375,16.15171 5.80079,5.21351 12.23438,11.097016 14.29688,13.074459 5.03451,4.826886 15.17251,13.31651 19.21875,16.093901 1.80469,1.238767 4.82693,3.545697 6.71611,5.126517 10.78899,9.02804 31.49852,20.52954 66.87764,37.14204 2.01384,0.94562 18.05311,6.48587 27.06547,9.34891 3.02663,0.96149 11.04225,2.42114 17.8125,3.24365 6.77025,0.82251 15.82283,2.17217 20.11686,2.99925 21.85038,4.20864 63.89408,-0.29412 74.3862,-7.96652 15.66509,-11.45518 18.73368,-16.26733 21.82302,-34.22283 4.40634,-25.609905 -6.08457,-44.160882 -32.82714,-58.047996 -7.89285,-4.098666 -7.81841,-4.78 -5.0905,46.592846 1.78176,33.5548 -1.70657,37.09702 -13.53856,13.74772 -1.51039,-2.98061 -5.06609,-6.8558 -10.90112,-11.88064 -9.22562,-7.944616 -11.18157,-11.000397 -11.20483,-17.505213 -0.0217,-6.075122 -0.74057,-6.64743 -8.68073,-6.911196 -11.6086,-0.385629 -22.97898,-5.762704 -35.45797,-16.76815 -2.37012,-2.090249 -7.45047,-5.332888 -11.28966,-7.205866 -8.39162,-4.09391 -10.20134,-5.855761 -8.13616,-7.920943 1.49823,-1.498225 65.07269,-3.810618 73.42262,-2.6706 2.0625,0.281594 8.60169,0.860457 14.53154,1.286362 23.70517,1.702599 44.2444,13.336867 51.85357,29.371992 0.80439,1.695138 1.90122,4.235891 2.43738,5.646116 1.95566,5.143759 4.83768,3.475626 8.52783,-4.935952 11.16774,-25.456544 49.70813,-37.228222 49.67742,-15.173344 -0.0185,13.285384 -19.83655,18.605688 -23.98158,6.438035 -3.18007,-9.335013 -18.36841,8.881315 -24.3263,29.176034 -3.08193,10.498195 -7.75202,23.198365 -9.81819,26.700255 -11.55725,19.58807 -2.04908,23.08249 14.69813,5.40181 5.2837,-5.5782 9.0659,-8.75053 11.31952,-9.4943 1.92953,-0.6368 6.68068,-4.22178 11.05192,-8.33923 4.21709,-3.97224 9.25317,-8.43175 11.1913,-9.91004 1.93813,-1.47828 4.846,-3.928211 6.46192,-5.44427 10.72857,-10.065609 31.77226,-27.129651 36.68804,-29.749897 2.0625,-1.09936 4.80469,-2.9474 6.09375,-4.106754 1.28906,-1.159355 3.81056,-2.90591 5.60344,-3.881233 1.79278,-0.975324 4.86712,-2.899059 6.83193,-4.274965 1.96472,-1.375907 5.34947,-2.797557 7.52157,-3.159222 2.17209,-0.361664 5.43926,-1.412361 7.26026,-2.334883 3.4831,-1.764485 12.2122,-3.833419 17.824,-4.224563 7.1517,-0.498476 17.1519,-2.427282 19.8688,-3.832206 2.6602,-1.375687 3.3604,-1.332393 10.27,0.635025 14.2007,4.043462 13.167,9.910092 -2.055,11.662671 -11.74,1.351691 -30.3504,16.588599 -38.1937,31.270382 -5.0899,9.528051 -16.68839,17.999055 -24.53414,17.918735 -14.16235,-0.14499 -22.58466,-5.527015 -22.58466,-14.432097 0,-8.871658 -1.93734,-7.639613 -27.1875,17.289397 -17.05643,16.83953 -21.95847,21.09623 -31.875,27.67876 -6.44531,4.27836 -15.42136,10.33103 -19.94677,13.45041 -11.66316,8.03942 -18.98207,11.94745 -26.49341,14.14652 -3.59071,1.05123 -7.7942,2.31656 -9.34107,2.81183 -10.20282,3.26668 -41.23444,5.46787 -50.40167,3.57517 -10.35411,-2.13773 -10.5999,1.5126 -0.70284,10.43872 8.19948,7.39509 11.24588,12.20237 15.49458,24.45075 1.87801,5.41406 4.87278,12.95592 6.65504,16.7597 3.64887,7.78758 3.36657,11.6697 -1.05949,14.56976 -5.89885,3.86509 -8.42033,0.28667 -13.15855,-18.67434 -7.35354,-29.42673 -21.2577,-44.02152 -47.88026,-50.25848 -4.57699,-1.07227 -13.17337,-3.66198 -19.10306,-5.75492 -5.92969,-2.09293 -13.651,-4.78429 -17.15847,-5.98078 -3.50747,-1.19649 -7.51528,-2.79082 -8.90625,-3.54297 -1.39097,-0.75214 -6.53684,-3.11833 -11.43528,-5.2582 -16.14467,-7.05275 -27.58116,-12.89237 -32.8125,-16.7545 -2.83594,-2.09367 -6.70966,-4.65533 -8.60827,-5.69258 -1.8986,-1.03724 -3.71647,-2.3138 -4.0397,-2.83679 -0.32322,-0.523 -1.43497,-0.9509 -2.47053,-0.9509 -2.7341,0 -1.04361,5.22764 3.78955,11.71875 2.66597,3.5805 6.50679,9.89605 14.84863,24.41602 10.32074,17.96447 20.31392,50.53502 24.66722,80.39729 1.30655,8.96249 2.25364,12.64146 3.74085,14.53125 1.09526,1.39174 4.60622,6.53283 7.80214,11.42465 10.76485,16.47715 25.88589,25.72511 42.32788,25.88759 11.43618,0.11301 14.26022,1.7914 10.97475,6.52254 -7.76497,11.18172 -41.65588,-1.02308 -55.53252,-19.99839 -7.44019,-10.17392 -9.71137,-8.97427 -10.68272,5.64265 -1.22569,18.44418 -7.30205,43.30696 -12.57212,51.44157 -1.90515,2.9407 -6.62797,11.31543 -10.49516,18.6105 -3.86719,7.29507 -9.04664,15.9781 -11.5099,19.29563 -2.46327,3.31753 -7.64544,10.88874 -11.51595,16.82492 -3.87052,5.93618 -9.77466,13.83235 -13.12032,17.54704 -3.34565,3.71469 -7.34286,8.98633 -8.88269,11.71474 -1.53982,2.72841 -3.21196,4.96075 -3.71585,4.96075 -0.50391,0 -2.08124,1.79297 -3.50519,3.98438 -1.42396,2.1914 -4.82971,6.65597 -7.56836,9.92126 -6.83087,8.14448 -6.52802,9.84153 1.86831,10.46936 7.18402,0.53719 10.88109,3.13947 13.98508,9.84375 4.60129,9.93832 -6.37497,26.47994 -25.87888,39.00044 -2.0625,1.32402 -7.125,4.57626 -11.25,7.22718 -9.19582,5.90969 -12.65449,10.7237 -12.65976,17.62069 -0.005,6.23207 -2.56319,10.30679 -7.21936,11.498 -6.65675,1.70305 -12.84496,2.04341 -14.96485,0.8231 z m 10.38186,-11.202 c 0.24213,-1.1852 0.69319,-5.0441 1.00235,-8.57532 0.5127,-5.85581 2.40615,-12.38506 9.42073,-32.48584 3.11235,-8.9187 10.98915,-23.78928 19.61507,-37.03125 3.6947,-5.67188 7.50443,-11.57813 8.46606,-13.125 0.96163,-1.54688 2.92775,-4.28906 4.36914,-6.09375 9.92342,-12.4245 30.80751,-40.98535 30.80751,-42.132 0,-0.44858 1.54159,-2.64848 3.42575,-4.88868 6.33944,-7.53732 21.71106,-31.34514 21.84811,-33.8387 0.107,-1.94705 -3.91477,-0.28049 -7.1191,2.95003 -4.51979,4.55675 -14.61201,9.97206 -27.9346,14.98923 -24.01481,9.04374 -40.12306,26.70322 -30.04119,32.93416 9.71142,6.00199 6.27383,21.54846 -4.76472,21.54846 -19.81639,0 -13.67514,-33.32771 9.38977,-50.95691 6.45365,-4.93272 7.02086,-6.73814 2.56696,-8.17059 -7.50463,-2.41361 -17.06905,-9.43547 -19.54641,-14.35028 -0.81186,-1.61066 -2.51789,-4.04303 -3.79116,-5.40527 -1.65674,-1.77248 -2.55303,-4.17179 -3.15193,-8.4375 -0.4603,-3.27838 -1.30937,-8.07007 -1.88685,-10.6482 -1.48709,-6.63915 -1.337,-110.80723 0.16226,-112.61373 2.69489,-3.24715 6.22293,-0.79411 7.12204,4.95195 0.84566,5.40451 4.20395,12.41653 9.79757,20.45706 2.75949,3.96661 6.0769,9.03485 7.37203,11.26275 1.29513,2.22791 3.05634,4.82783 3.9138,5.7776 6.03788,6.6879 8.73973,17.43197 6.41877,25.52468 -1.14192,3.98166 0.005,6.28678 3.45852,6.9523 8.23811,1.58745 9.98343,2.54329 16.9864,9.30268 9.47154,9.1421 13.22321,11.86454 18.56574,13.4724 6.28567,1.89171 8.77074,3.74594 8.77074,6.54426 0,4.74269 -3.26355,5.18856 -40.35488,5.51319 -18.44402,0.16143 -34.03789,0.60457 -34.65305,0.98476 -3.77372,2.33229 10.66503,25.03371 17.69631,27.82314 4.02503,1.59679 18.09647,4.52757 19.01438,3.96028 0.46631,-0.2882 3.89505,-0.69136 7.61942,-0.8959 26.32255,-1.44569 52.06135,-32.98967 56.06661,-68.71202 0.50061,-4.46485 1.09655,-8.75071 1.32432,-9.52415 6.04006,-20.51058 -10.80693,-91.54269 -27.23798,-114.84375 -1.09079,-1.54687 -4.37192,-7.14104 -7.29138,-12.43148 -11.51155,-20.86046 -28.11066,-40.775236 -44.215,-53.046943 -4.125,-3.1433 -10.36146,-8.551409 -13.8588,-12.018019 -7.38442,-7.319536 -8.44462,-7.802093 -13.39392,-6.096345 -8.42884,2.904952 -3.7546,10.712153 17.52395,29.269518 15.15846,13.219949 16.53708,17.304009 8.71377,25.813819 l -5.23375,5.69301 0.65419,4.84572 c 1.74962,12.95983 8.42559,15.18513 19.74555,6.58177 5.99281,-4.55463 8.28461,-1.06065 4.573,6.97182 -5.82683,12.61012 -6.5304,18.56141 -2.69533,22.79911 2.13126,2.35502 6.98654,2.27626 10.08837,-0.16364 6.30659,-4.96075 10.77789,-0.38816 6.80688,6.96109 l -2.70108,4.99898 2.02812,6.553 c 1.47402,4.76265 2.94999,7.42769 5.40234,9.75455 18.55877,17.60904 20.12746,54.415 1.97023,46.22723 -10.04639,-4.53029 -10.04177,-16.47622 0.007,-18.06471 8.02848,-1.26914 6.65755,-6.1397 -4.9148,-17.46098 -8.00456,-7.83089 -11.54445,-13.84014 -12.36485,-20.99034 -0.66723,-5.8152 -1.34159,-6.63051 -5.50163,-6.65156 -6.92707,-0.0351 -12.09942,-8.11052 -12.28997,-19.18809 l -0.12825,-7.45499 -5.2989,-1.20345 c -7.2753,-1.65231 -8.49761,-2.46291 -10.75954,-7.13543 -4.13618,-8.54421 -1.96198,-19.35289 5.52723,-27.47774 8.39454,-9.10699 2.18071,-13.7452 -17.66345,-13.18458 -18.03376,0.50946 -16.23313,-3.44154 -16.40647,35.99964 -0.13254,30.15614 -0.25956,32.46676 -1.83792,33.43447 -4.02931,2.47072 -4.39778,-0.3534 -4.39778,-33.70993 0,-36.523 9.4e-4,-36.51409 -4.43973,-37.97968 -5.71523,-1.8862 -19.93528,-0.70853 -21.7322,1.79981 -0.81638,1.13958 -3.07088,4.13098 -5.01001,6.64753 -4.39245,5.70041 -3.85466,7.90877 2.94486,12.09255 14.07884,8.6628 8.2149,32.89059 -7.97626,32.95512 -5.1555,0.0205 -5.91591,1.2377 -5.6937,9.1136 0.28152,9.97742 -5.16425,15.27308 -16.62482,16.1666 l -6.62439,0.51647 -0.0522,5.77605 c -0.0488,5.39034 -0.4804,6.5172 -6.46447,16.875 -9.26145,16.03062 -9.53723,22.8177 -0.92713,22.8177 4.63645,0 6.03757,1.77141 6.03757,7.63314 0,6.04467 -8.35061,10.42377 -14.05534,7.37069 -6.43834,-3.44569 -7.21933,-24.2542 -1.38872,-37.00121 1.27548,-2.78849 2.31906,-5.31633 2.31906,-5.61742 0,-0.30111 0.98544,-2.12111 2.18988,-4.04445 3.59525,-5.74125 5.31971,-11.91345 4.31108,-15.43032 -0.48178,-1.67987 -0.87596,-4.42818 -0.87596,-6.10737 0,-3.40687 -0.47172,-3.26096 9.91041,-3.06534 15.81854,0.29807 19.92007,-9.36037 8.25255,-19.43337 -9.2881,-8.01877 -4.95867,-12.36937 7.21168,-7.24694 11.87709,4.99899 19.80533,2.85303 21.08918,-5.70826 1.19531,-7.97088 -2.21009,-12.45497 -12.38049,-16.30216 -7.6213,-2.88294 -5.46196,-7.31367 14.19792,-29.132696 13.2003,-14.650024 19.21875,-22.2764 19.21875,-24.353338 0,-1.504171 -6.20488,-4.685956 -9.13821,-4.685956 -2.63439,0 -30.02386,29.904351 -38.92785,42.50217 -2.9754,4.20974 -7.40508,10.33312 -9.84375,13.6075 -13.16681,17.67896 -33.96519,52.16525 -33.96519,56.3185 0,0.62271 -1.5058,4.3741 -3.34624,8.3364 -3.30793,7.12171 -13.52193,40.77689 -13.53607,44.60144 -0.004,1.08775 -0.84309,5.35274 -1.86458,9.47774 -1.22254,4.93688 -2.22173,13.97559 -2.92377,26.44844 -1.11415,19.79469 -1.04657,20.79754 2.76657,41.05156 l 1.765,9.375 10.67892,10.86549 c 11.37491,11.57365 13.28327,12.8643 24.27267,16.41599 9.81136,3.17096 29.03309,4.08168 37.28427,1.76652 l 5.7028,-1.60013 6.76126,-11.74431 c 11.48641,-19.95197 10.92219,-21.37642 -7.90719,-19.96262 -18.65977,1.40105 -43.65469,2.87628 -48.52323,2.86386 -8.79411,-0.0224 -8.23025,-5.67418 1.07901,-10.81526 10.60735,-5.85795 14.97204,-9.17701 17.30647,-13.16042 1.29267,-2.20575 3.62485,-4.99341 5.18263,-6.19479 1.55778,-1.20138 4.08483,-3.16585 5.61567,-4.36548 1.53083,-1.19963 4.37154,-2.61265 6.31269,-3.14005 6.18689,-1.68093 6.63325,-2.56729 6.09008,-12.0936 -0.8816,-15.46197 2.29232,-23.97717 14.42955,-38.71251 3.90265,-4.73806 6.58046,-9.17448 8.36488,-13.85836 3.18605,-8.36299 5.36094,-11.06752 7.70477,-9.58111 1.89118,1.19936 2.12192,103.36615 0.25959,114.94219 -2.3068,14.33886 -12.49629,29.97311 -23.17497,35.5585 -4.53604,2.37254 -3.2575,4.59791 5.02539,8.74694 21.13555,10.58714 28.31882,49.2254 9.15153,49.2254 -11.83215,0 -16.69965,-15.48712 -6.48231,-20.625 14.71628,-7.4002 -7.46998,-26.49055 -37.52664,-32.29011 -6.04366,-1.16614 -11.38791,-3.0671 -18.8367,-6.70021 -22.94972,-11.19364 -17.0313,0.2547 23.17129,44.82156 12.78196,14.16953 14.22273,16.05007 26.54479,34.6468 11.00643,16.61118 14.7769,22.68604 17.64447,28.42821 2.96343,5.93414 8.1949,19.0052 8.1949,20.47535 0,0.61321 0.88367,2.76365 1.96371,4.77877 4.23026,7.89275 6.83392,30.70419 3.6962,32.38345 -3.01071,1.61129 -1.28806,3.27965 3.69633,3.57984 4.20197,0.25307 4.6899,0.0732 5.0879,-1.875 z m -20.54412,-26.29554 c -5.73941,-28.02617 -22.37954,-43.09367 -33.04065,-29.91803 -2.3361,2.88711 -0.42558,9.91967 3.60706,13.27741 5.36037,4.46327 8.57985,6.69104 24.6192,17.03569 5.07534,3.27335 5.55753,3.23379 4.81439,-0.39507 z m 43.13123,-2.60707 c 2.57812,-1.88762 6.07447,-4.14892 7.76964,-5.0251 17.12463,-8.85123 29.13091,-29.85424 19.39213,-33.92337 -9.86916,-4.1236 -20.00638,4.57983 -27.65612,23.74453 -1.59476,3.99527 -3.71795,8.65935 -4.71823,10.3646 -2.08018,3.54627 -2.55306,10.10358 -0.6468,8.96891 0.64454,-0.38365 3.28125,-2.24195 5.85938,-4.12957 z M 634.45312,303.1591 c 2.68854,-0.72049 2.74445,-3.5963 0.11173,-5.7464 -1.09872,-0.89729 -3.90594,-3.24756 -6.23828,-5.22282 -5.21859,-4.4196 -13.35903,-8.12275 -17.89635,-8.1412 -8.07771,-0.0328 -9.53443,-2.64234 -7.14326,-12.7961 2.7545,-11.69656 1.79907,-17.94312 -4.20655,-27.50258 -2.75346,-4.38281 -5.99232,-9.69546 -7.19745,-11.80588 -2.58342,-4.52403 -5.53781,-7.42466 -6.30233,-6.18765 -2.41114,3.90131 -2.96555,69.78725 -0.62406,74.16238 0.97231,1.81679 1.89609,1.9634 12.96704,2.0579 6.55607,0.056 14.45139,0.41582 17.54514,0.79967 7.35234,0.91223 16.33286,1.09326 18.98438,0.38268 z M 531.8803,302.017 c 11.77403,-0.89831 10.94677,1.86748 10.82064,-36.17667 -0.0582,-17.56374 0.1728,-32.98877 0.51339,-34.27783 3.72002,-14.07902 -13.19996,4.95016 -18.57645,20.89214 -2.24101,6.64487 -1.90446,10.68943 1.43056,17.19275 4.69479,9.15483 4.29168,9.72613 -11.20151,15.87527 -4.28412,1.70033 -9.55756,4.53305 -11.71875,6.29493 -2.16118,1.76188 -4.82595,3.67752 -5.9217,4.25698 -10.44986,5.52614 5.11874,8.19585 34.65382,5.94243 z M 317.61101,101.15928 c 4.40121,-4.113283 6.61241,-9.124956 7.2531,-16.439133 0.93272,-10.647836 0.93731,-10.657647 4.98359,-10.657647 1.9591,0 5.75257,0.650535 8.42996,1.445633 8.10079,2.405676 16.83138,0.146045 32.03484,-8.291182 3.86719,-2.146114 9.02762,-4.61379 11.46763,-5.483726 6.53006,-2.328164 10.59407,-5.420207 9.00305,-6.849855 -2.02597,-1.820475 -84.79975,1.488101 -86.63503,3.462916 -1.04116,1.120313 -0.0781,45.800914 1.06247,49.293494 0.50973,1.5608 7.96522,-2.33547 12.40039,-6.4805 z m 509.08372,3.1376 c 0.45276,-0.90235 0.52212,-5.01563 0.15412,-9.14063 -0.36799,-4.125 -0.33141,-14.609288 0.0813,-23.298419 0.41271,-8.689131 0.54706,-16.328259 0.29856,-16.97584 -0.34218,-0.891689 -4.93323,-1.167627 -18.91838,-1.13706 -10.15662,0.0222 -25.95344,-0.274595 -35.10407,-0.659543 -18.77183,-0.789691 -19.33221,-0.67678 -16.40056,3.304561 6.17546,8.386639 26.84084,16.331933 40.20136,15.456366 10.50741,-0.688591 10.16266,-0.979588 10.21368,8.620985 0.0367,6.923305 0.92663,9.083562 5.21569,12.662042 1.59784,1.33312 4.70774,4.76033 6.91089,7.616008 4.19147,5.43294 5.97165,6.29342 7.34742,3.55153 z M 162.79752,98.936353 c 6.75619,-4.732209 4.41296,-18.996965 -3.75094,-22.834451 -2.31631,-1.088795 -4.47943,-2.413172 -4.80691,-2.94306 -0.32749,-0.529887 -3.84118,-2.460911 -7.80818,-4.291164 -3.967,-1.830253 -8.90024,-4.978626 -10.96274,-6.996386 -3.39498,-3.321336 -9.93173,-6.558792 -13.24287,-6.558792 -2.45738,0 -1.26052,3.00354 4.2331,10.623076 3.03681,4.211995 6.40078,9.412718 7.47549,11.557162 6.58569,13.140901 23.14858,25.446192 28.86305,21.443615 z m 823.92123,-5.290497 c 6.12806,-1.685127 23.90625,-16.860986 23.90625,-20.406957 0,-4.623117 2.5401,-8.286553 7.6407,-11.01992 5.9792,-3.20415 7.8151,-7.843979 3.1038,-7.843979 -6.9465,0 -23.44022,6.700291 -36.52575,14.837972 -2.57813,1.603292 -6.22969,3.760432 -8.11453,4.793646 -14.38303,7.884307 -6.14691,24.076479 9.98953,19.639238 z M 579.91494,56.209268 c 5.95626,-3.407826 9.35757,-7.212984 10.65828,-11.923775 1.68436,-6.100238 1.44687,-6.152141 -23.98523,-5.242146 -25.00901,0.894858 -25.86692,1.202526 -20.56347,7.374534 1.29497,1.50706 2.83433,3.898525 3.42079,5.314366 3.05296,7.370496 20.84351,9.98453 30.46963,4.47702 z M 763.58331,252.069 c -4.31623,-2.75215 -18.70262,-8.319 -21.4988,-8.319 -0.66366,0 -2.27931,-0.84375 -3.59033,-1.875 -1.74443,-1.37217 -3.80323,-1.875 -7.6771,-1.875 -10.51056,0 -16.5801,-4.82358 -22.36263,-17.77198 -4.95848,-11.10321 -5.95923,-13.97848 -9.15046,-26.29052 -1.53694,-5.92969 -4.09612,-14.36719 -5.68707,-18.75 -2.6359,-7.26153 -3.87773,-9.98941 -9.49711,-20.86203 -3.77689,-7.3077 -0.16031,-8.73605 9.43855,-3.7277 3.97259,2.07275 11.60767,5.50651 16.96685,7.63057 5.35918,2.12406 12.1262,5.30904 15.03781,7.07776 2.91161,1.76871 6.44555,3.65372 7.85319,4.1889 13.0023,4.94347 26.07773,16.30399 31.75022,27.58603 l 3.82981,7.6171 0.11126,15.01032 c 0.0849,11.45653 0.54401,16.74637 1.93911,22.34305 2.72167,10.91836 0.6226,13.17331 -7.4633,8.0175 z m -33.25204,-26.60995 c 4.87205,-2.51944 6.0454,-7.82102 3.09862,-14.00049 -3.10167,-6.50426 2.43758,-9.16942 8.70528,-4.18848 3.16133,2.51232 4.13902,2.81679 7.39454,2.30283 14.2346,-2.24724 5.57252,-17.22 -15.99114,-27.64134 -11.06109,-5.34564 -32.50817,-17.29424 -34.40567,-19.1681 -4.57988,-4.52279 -5.80066,-1.16093 -2.10165,5.78764 1.28906,2.4215 2.34375,4.90931 2.34375,5.52846 0,0.61917 0.80287,2.52096 1.78416,4.22622 0.98128,1.70525 2.07354,4.57702 2.42724,6.38171 1.92504,9.82215 8.11598,24.55909 15.85205,37.73437 2.91691,4.96779 5.67324,5.73632 10.89282,3.03718 z m -369.62751,24.20733 c -3.85927,-1.00863 -3.52234,-4.01506 2.44913,-21.85388 2.51221,-7.5048 4.65968,-16.0508 5.27599,-20.99608 2.14766,-17.23288 12.86985,-27.05465 41.15922,-37.70274 3.30525,-1.24409 7.36627,-3.10049 9.02449,-4.12533 1.65823,-1.02484 3.46309,-1.86335 4.01078,-1.86335 1.35636,0 13.22552,-5.53569 16.12663,-7.52136 12.44618,-8.51873 16.60203,-9.55089 16.17568,-4.01742 -0.28008,3.6352 -10.05825,30.24914 -17.15611,46.69503 -2.00284,4.64062 -4.24598,10.125 -4.98477,12.1875 -9.11708,25.4527 -17.10162,32.3171 -37.62855,32.34965 -11.01608,0.0174 -16.39348,1.09095 -25.19478,5.02957 -5.52663,2.47319 -6.22643,2.61065 -9.25771,1.81841 z m 53.31043,-23.01768 c 4.32839,-3.36294 5.81182,-5.41102 9.68203,-13.36745 3.83371,-7.88138 12.46128,-28.3437 13.63718,-32.34375 0.37895,-1.28906 2.16579,-5.81816 3.97076,-10.06466 4.75365,-11.18374 3.08901,-13.50547 -4.93131,-6.87786 -2.45097,2.02537 -7.66487,5.02718 -11.58645,6.6707 -3.92158,1.64352 -10.92702,4.59072 -15.56765,6.54934 -4.64062,1.95862 -10.54687,4.29186 -13.125,5.18499 -23.51105,8.14479 -19.74116,29.57727 4.45313,25.3168 5.7986,-1.0211 5.99921,0.86495 0.70312,6.61053 -8.59343,9.32277 2.65197,20.17804 12.76419,12.32136 z"
     id="path4256"
     inkscape:connector-curvature="0" />
</svg>
